<?xml version="1.0" standalone="no"?>
<!DOCTYPE svg PUBLIC "-//W3C//DTD SVG 20010904//EN"
 "http://www.w3.org/TR/2001/REC-SVG-20010904/DTD/svg10.dtd">
<svg version="1.0" xmlns="http://www.w3.org/2000/svg"
 width="1000.000000pt" height="1000.000000pt" viewBox="0 0 1000.000000 1000.000000"
 preserveAspectRatio="xMidYMid meet">
<metadata>
Created by potrace 1.14, written by Peter Selinger 2001-2017
</metadata>
<g transform="translate(0.000000,1000.000000) scale(0.100000,-0.100000)"
fill="#000000" stroke="none">
<path d="M4640 9994 c-673 -59 -1242 -212 -1815 -488 -1460 -704 -2485 -2068
-2759 -3671 -54 -319 -61 -411 -61 -835 0 -424 7 -516 61 -835 274 -1603 1299
-2967 2759 -3671 519 -250 1027 -396 1635 -471 209 -26 871 -26 1080 0 608 75
1116 221 1635 471 1286 620 2243 1758 2639 3138 70 243 127 534 163 828 26
209 26 871 0 1080 -75 608 -221 1116 -471 1635 -704 1460 -2068 2485 -3671
2759 -298 51 -398 58 -785 61 -201 1 -385 1 -410 -1z"/>
</g>
</svg>
